# xmcd
#
# Track frame offsets:
#	150
#	10161
#	22271
#	37526
#	50533
#	64093
#	76201
#	89363
#	103001
#	114926
#	127887
#	140914
#	155180
#	168320
#	183347
#	194514
#	209024
#	224911
#	239262
#
# Disc length: 3370
#
# Revision: 2
# Processed by: cddbd v1.5.1PL0 Copyright (c) Steve Scherf et al.
# Submitted via: audiograbber 1.80
# Normalized: r1:DSETVAR1
#
DISCID=130d2813
DTITLE=Various Artist - The Great Blues Singers Disc 1
DYEAR=1900
DGENRE=
TTITLE0=John Lee Hooker - Dimples
TTITLE1=Robert Johnson - Cross Road Blues
TTITLE2=Muddy Waters - 32-20 Blues
TTITLE3=Bessie Smith - Preaching The Blues
TTITLE4=Sonny Boy Williamson - Good Morning Little Schoolsgirl
TTITLE5=Big Joe Williams - Baby Please Don't Go
TTITLE6=Sippie Wallance - I'm A Mighty Tight Woman
TTITLE7=Blind Willie Mctell - Scary Day Blues
TTITLE8=Leadbelly - Fannin' Street
TTITLE9=Mississippi John Hurt - Got The Blues, Can't Be Satisfied
TTITLE10=Big Maceo - Worried Life Blues
TTITLE11=Pine Top Smith - I'm Sober Now
TTITLE12=Washboard Sam - She Fooled Me
TTITLE13=Sleepy John Estes - Broken Hearted, Ragged And Dirty Too
TTITLE14=Blind Boy Fuller - She's A Trucking Little Baby
TTITLE15=Ma Rainey - Sleep Talking Blues
TTITLE16=Tampa Red - My Daddy Rocks Me
TTITLE17=Son House - My Black Mama
TTITLE18=Big Bill Broonzy - I'm Woke Up Now
EXTD=
EXTT0=
EXTT1=
EXTT2=
EXTT3=
EXTT4=
EXTT5=
EXTT6=
EXTT7=
EXTT8=
EXTT9=
EXTT10=
EXTT11=
EXTT12=
EXTT13=
EXTT14=
EXTT15=
EXTT16=
EXTT17=
EXTT18=
PLAYORDER=
